<?xml version="1.0"?>
<svg width="121" height="121" xmlns="http://www.w3.org/2000/svg" xmlns:svg="http://www.w3.org/2000/svg">
 <g class="layer">
  <title>Layer 1</title>
  <path d="m60.66,0.51l51.96,30l0,60l-51.96,30l-51.97,-30l0,-60l51.97,-30z" fill="white" id="svg_5"/>
  <path d="m63.41,22.71l0,33.03l28.61,-16.52l-28.61,-16.51zm-34.12,59.09l28.61,16.51l0,-33.03l-28.61,16.52zm34.12,-16.52l0,33.03l28.61,-16.51l-28.61,-16.52zm-2.75,-1.59l2.75,1.59l0,-3.18l-2.75,1.59zm-31.37,18.11l28.61,16.51l0,-33.03l-28.61,16.52zm34.12,-59.09l0,33.03l28.61,-16.52l-28.61,-16.51zm0,42.57l0,33.03l28.61,-16.51l-28.61,-16.52zm-2.75,-1.59l2.75,1.59l0,-3.18l-2.75,1.59zm-31.37,18.11l28.61,16.51l0,-33.03l-28.61,16.52zm0,0l28.61,16.51l0,-33.03l-28.61,16.52zm31.37,-18.11l2.75,1.59l0,-3.18l-2.75,1.59zm2.75,1.59l0,33.03l28.61,-16.51l-28.61,-16.52zm0,-42.57l0,33.03l28.61,-16.52l-28.61,-16.51zm0,0l0,33.03l28.61,-16.52l-28.61,-16.51zm0,42.57l0,33.03l28.61,-16.51l-28.61,-16.52zm-2.75,-1.59l2.75,1.59l0,-3.18l-2.75,1.59zm-31.37,18.11l28.61,16.51l0,-33.03l-28.61,16.52zm-2.75,-37.81l0,33.04l28.61,-16.52l-28.61,-16.52zm2.75,-4.77l28.61,16.52l0,-33.03l-28.61,16.51zm0,42.58l28.61,16.51l0,-33.03l-28.61,16.52zm28.61,-26.06l0,3.18l2.76,-1.59l-2.76,-1.59zm2.76,7.95l2.75,1.59l0,-3.18l-2.75,1.59zm2.75,1.59l0,33.03l28.61,-16.51l-28.61,-16.52zm0,-42.57l0,33.03l28.61,-16.52l-28.61,-16.51zm0,0l0,33.03l28.61,-16.52l-28.61,-16.51zm0,75.6l28.61,-16.51l-28.61,-16.52l0,33.03zm-2.75,-34.62l2.75,1.59l0,-3.18l-2.75,1.59zm0,-6.36l-2.76,-1.59l0,3.18l2.76,-1.59zm-2.76,40.98l0,-33.03l-28.61,16.52l28.61,16.51zm-28.61,-59.09l28.61,16.52l0,-33.03l-28.61,16.51zm-2.75,4.77l0,33.04l28.61,-16.52l-28.61,-16.52zm77.45,-11.68l-40.58,-23.43l-2.75,-1.59l-2.76,1.59l-40.58,23.43l-2.75,1.59l0,53.22l2.75,1.59l40.58,23.43l2.76,1.59l2.75,-1.59l40.58,-23.43l2.76,-1.59l0,-53.22l-2.76,-1.59zm-3.42,8.34l-5.8,3.34l-28.61,16.52l28.61,16.52l0,3.18l-2.75,1.59l5.79,3.34l-34.4,19.86l-2.75,1.59l-2.76,-1.59l-34.4,-19.86l-2.75,-1.59l0,-42.9l5.79,3.34l0,-3.18l2.75,-1.59l-5.8,-3.34l34.41,-19.87l2.76,-1.59l2.75,1.59l34.41,19.86l2.75,1.6l0,3.18zm-37.16,15.09l28.61,-16.52l-28.61,-16.51l0,33.03zm0,42.57l28.61,-16.51l-28.61,-16.52l0,33.03zm-2.75,-34.62l2.75,1.59l0,-3.18l-2.75,1.59zm0,-6.36l-2.76,-1.59l0,3.18l2.76,-1.59zm-2.76,40.98l0,-33.03l-28.61,16.52l28.61,16.51zm0,-75.6l-28.61,16.51l28.61,16.52l0,-33.03zm-2.75,37.8l-28.61,-16.52l0,33.04l28.61,-16.52zm-28.61,-16.52l0,33.04l28.61,-16.52l-28.61,-16.52zm2.75,-4.77l28.61,16.52l0,-33.03l-28.61,16.51zm0,42.58l28.61,16.51l0,-33.03l-28.61,16.52zm28.61,-26.06l0,3.18l2.76,-1.59l-2.76,-1.59zm2.76,7.95l2.75,1.59l0,-3.18l-2.75,1.59zm2.75,1.59l0,33.03l28.61,-16.51l-28.61,-16.52zm0,-42.57l0,33.03l28.61,-16.52l-28.61,-16.51zm0,0l0,33.03l28.61,-16.52l-28.61,-16.51zm0,42.57l0,33.03l28.61,-16.51l-28.61,-16.52zm-2.75,-1.59l2.75,1.59l0,-3.18l-2.75,1.59zm-2.76,-7.95l0,3.18l2.76,-1.59l-2.76,-1.59zm-28.61,26.06l28.61,16.51l0,-33.03l-28.61,16.52zm0,-42.58l28.61,16.52l0,-33.03l-28.61,16.51zm-2.75,4.77l0,33.04l28.61,-16.52l-28.61,-16.52zm2.75,37.81l28.61,16.51l0,-33.03l-28.61,16.52zm31.37,-18.11l2.75,1.59l0,-3.18l-2.75,1.59zm2.75,1.59l0,33.03l28.61,-16.51l-28.61,-16.52zm0,-42.57l0,33.03l28.61,-16.52l-28.61,-16.51zm0,42.57l0,33.03l28.61,-16.51l-28.61,-16.52zm-2.75,-1.59l2.75,1.59l0,-3.18l-2.75,1.59zm-31.37,18.11l28.61,16.51l0,-33.03l-28.61,16.52zm0,0l28.61,16.51l0,-33.03l-28.61,16.52zm34.12,-59.09l0,33.03l28.61,-16.52l-28.61,-16.51zm0,0l0,33.03l28.61,-16.52l-28.61,-16.51z" fill="white" id="svg_6"/>
  <path d="m57.9,55.74l0,3.18l-2.75,1.59l-28.61,-16.52l0,-3.18l2.75,-1.59l28.61,16.52z" fill="#FFD43C" id="svg_7"/>
  <path d="m60.66,57.33l-2.76,1.59l0,-3.18l2.76,1.59z" fill="white" id="svg_8"/>
  <path d="m94.77,77.03l0,3.18l-2.75,1.59l-28.61,-16.52l0,-3.18l2.75,-1.59l28.61,16.52z" fill="#FF1C24" id="svg_9"/>
  <path d="m63.41,62.1l0,3.18l-2.75,-1.59l2.75,-1.59z" fill="white" id="svg_10"/>
  <path d="m60.65,63.69l2.76,-1.59l2.75,-1.59l28.61,-16.52l5.8,-3.34l0,-3.18l-2.75,-1.6l-34.41,-19.86l-2.76,-1.59l-2.75,1.59l-34.41,19.87l5.8,3.34l28.61,-16.51l0,33.03l2.75,1.59l-2.75,1.59l-2.75,1.59l-28.61,16.52l0,-33.04l-5.8,-3.34l0,42.9l2.76,1.59l34.4,19.86l2.75,1.59l2.76,-1.59l34.4,-19.86l-5.79,-3.34l-28.61,16.51l-2.76,1.59l-2.75,-1.59l-28.61,-16.51l28.61,-16.52l2.75,-1.59zm2.76,-40.98l28.61,16.51l-28.61,16.52l0,-33.03z" fill="#1E205B" id="svg_11"/>
  <path d="m63.41,65.28l0,33.03l-2.76,1.59l-2.75,-1.59l0,-33.03l2.75,-1.59l2.76,1.59z" fill="#575AA9" id="svg_12"/>
 </g>
</svg>